<svg width="78" height="67" viewBox="0 0 78 67" fill="none" xmlns="http://www.w3.org/2000/svg">
<mask id="path-1-inside-1_199819_529" fill="white">
<path d="M38.7121 36.3248C35.6355 38.5181 34.0159 39.908 33.1664 40.7476C32.7808 41.1288 32.3413 41.5307 32.1881 42.0667C31.1043 39.7572 30.789 37.0829 30.8467 34.5574C31.0325 26.4162 37.1012 20.8577 39.9879 13.6352C36.4531 20.4477 29.8841 25.3845 29.058 33.5213C28.7709 36.3498 29.1508 39.1954 29.4916 42.0014C26.6515 40.0679 24.8052 36.8322 23.8171 33.6113C19.0253 17.9924 35.4516 10.7254 42.9513 0C54.7208 11.0142 50.8299 27.6858 38.7121 36.3248Z"/>
</mask>
<path d="M38.7121 36.3248C35.6355 38.5181 34.0159 39.908 33.1664 40.7476C32.7808 41.1288 32.3413 41.5307 32.1881 42.0667C31.1043 39.7572 30.789 37.0829 30.8467 34.5574C31.0325 26.4162 37.1012 20.8577 39.9879 13.6352C36.4531 20.4477 29.8841 25.3845 29.058 33.5213C28.7709 36.3498 29.1508 39.1954 29.4916 42.0014C26.6515 40.0679 24.8052 36.8322 23.8171 33.6113C19.0253 17.9924 35.4516 10.7254 42.9513 0C54.7208 11.0142 50.8299 27.6858 38.7121 36.3248Z" fill="url(#paint0_radial_199819_529)"/>
<path d="M38.7121 36.3248C38.7121 36.3248 38.7121 36.3248 38.7121 36.3248C36.7862 37.7023 34.8654 39.0923 33.1512 40.7323C32.8858 40.9933 32.6084 41.2504 32.3981 41.5652C32.2969 41.717 32.2134 41.8825 32.1624 42.0594L32.2122 42.0554C31.1326 39.723 30.8345 37.1087 30.8967 34.5586C31.0435 26.5991 37.2358 20.8041 40.0996 13.6798C40.153 13.5462 39.9475 13.4521 39.8812 13.5798C36.3884 20.274 29.6431 25.4762 28.869 33.5021C28.5707 36.3621 28.9451 39.2178 29.2773 42.0275L29.6131 41.823C26.816 39.8934 25.0414 36.7682 24.0535 33.5387C19.16 18.8132 35.6289 10.8467 43.256 0.213043L42.6973 0.271448C51.4196 7.76381 51.5077 21.8401 44.267 30.3782C42.6017 32.493 40.622 34.3597 38.4218 35.9177C38.6153 36.1891 38.8088 36.4605 39.0023 36.7319C41.2689 35.1061 43.305 33.1629 45.0152 30.9637C52.4689 22.1114 52.2609 7.37532 43.2053 -0.271448C43.0291 -0.435315 42.7839 -0.410638 42.6466 -0.213043C35.3597 10.2061 18.4828 18.5121 23.5807 33.6838C24.613 36.9818 26.4459 40.1858 29.3701 42.1799C29.5431 42.2972 29.7316 42.1829 29.7059 41.9754C29.3556 39.1643 28.9714 36.3427 29.2471 33.5405C29.9341 25.7074 36.5918 20.4687 40.0946 13.6906L39.8763 13.5906C37.0914 20.6657 30.8982 26.543 30.7966 34.5563C30.7497 37.1167 31.065 39.7413 32.1639 42.078C32.1757 42.1029 32.2062 42.1005 32.2137 42.0741C32.2618 41.9031 32.3417 41.7419 32.4398 41.5928C32.6436 41.2834 32.9171 41.026 33.1816 40.763C34.8817 39.1164 36.7949 37.7136 38.7121 36.3248ZM38.7121 36.3248C38.7933 36.2665 38.9211 36.7902 39.0023 36.7319L38.4218 35.9177L38.7121 36.3248Z" fill="url(#paint1_linear_199819_529)" style="mix-blend-mode:darken" mask="url(#path-1-inside-1_199819_529)"/>
<mask id="path-3-inside-2_199819_529" fill="white">
<path d="M37.8256 48.3016C39.4144 49.0341 41.0447 49.6924 42.7656 50.0414C37.9794 57.3717 28.5386 56.4188 21.0116 55.2476C18.2359 54.8156 15.3477 54.4948 11.943 54.9623C14.9349 55.198 18.1175 55.8742 21.2204 56.4953C28.5315 57.9587 38.7187 57.9397 44.3371 52.067L44.4778 52.1527C43.0427 56.3348 41.2873 60.0224 38.5313 62.6639C35.7722 65.3084 32.0181 66.8973 26.6018 66.8973C16.5466 66.8973 9.24464 60.3158 0 57.8366C2.23279 52.9508 5.31653 48.1658 9.9445 45.2274C19.2315 39.3308 29.0374 44.2502 37.8256 48.3016Z"/>
</mask>
<path d="M37.8256 48.3016C39.4144 49.0341 41.0447 49.6924 42.7656 50.0414C37.9794 57.3717 28.5386 56.4188 21.0116 55.2476C18.2359 54.8156 15.3477 54.4948 11.943 54.9623C14.9349 55.198 18.1175 55.8742 21.2204 56.4953C28.5315 57.9587 38.7187 57.9397 44.3371 52.067L44.4778 52.1527C43.0427 56.3348 41.2873 60.0224 38.5313 62.6639C35.7722 65.3084 32.0181 66.8973 26.6018 66.8973C16.5466 66.8973 9.24464 60.3158 0 57.8366C2.23279 52.9508 5.31653 48.1658 9.9445 45.2274C19.2315 39.3308 29.0374 44.2502 37.8256 48.3016Z" fill="url(#paint2_radial_199819_529)"/>
<path d="M21.0116 55.2476C18.1962 54.7869 15.3199 54.5363 12.4737 54.8701C12.2952 54.8902 12.1181 54.912 11.9394 54.936C11.9082 54.9403 11.9096 54.9864 11.9409 54.9888C15.0666 55.2509 18.1372 55.927 21.2098 56.5482C29.0325 58.024 38.3704 58.146 44.4278 52.1537L44.2718 52.1741C44.3186 52.2028 44.3654 52.2315 44.4123 52.2602L44.3587 52.1118C43.0302 55.9186 41.3478 59.7464 38.4196 62.5473C35.325 65.5833 30.8727 66.7501 26.6018 66.6979C16.97 66.7743 9.25377 60.0577 0.073032 57.5643L0.256444 57.9538C2.49958 53.082 5.57074 48.3751 10.1211 45.5055C18.6963 39.8055 29.1176 44.6045 37.6517 48.6788C39.2486 49.4205 40.9116 50.0996 42.68 50.4635L42.405 49.806C39.7507 54.0879 34.4612 55.666 29.535 55.5765C26.7179 55.5731 23.8992 55.199 21.0885 54.7535C21.0373 55.0829 20.986 55.4122 20.9348 55.7416C23.7656 56.173 26.6344 56.5395 29.5374 56.5265C34.584 56.6045 40.3159 54.8887 43.1262 50.2769C43.31 49.9936 43.1824 49.6856 42.8512 49.6194C41.184 49.287 39.5765 48.6463 37.9995 47.9244C29.495 43.9306 18.6795 38.9668 9.76791 44.9492C5.07138 47.9537 1.98282 52.7859 -0.256444 57.7194C-0.33347 57.8893 -0.253308 58.0612 -0.073032 58.1089C8.95169 60.4802 16.7875 67.2168 26.6018 67.0967C30.9297 67.1271 35.4975 65.9059 38.6431 62.7805C41.6177 59.8987 43.2843 56.022 44.5969 52.1936C44.615 52.1403 44.5915 52.0744 44.5433 52.0452C44.4963 52.0167 44.4494 51.9883 44.4024 51.9599C44.3543 51.9308 44.2852 51.9396 44.2465 51.9803C38.3471 57.9033 29.0428 57.877 21.231 56.4423C18.1556 55.8392 15.0775 55.1801 11.9451 54.9359L11.9466 54.9887C12.1248 54.9637 12.3015 54.9408 12.4795 54.9198C15.3177 54.5701 18.1933 54.8032 21.0116 55.2476ZM21.0116 55.2476L20.9348 55.7416L21.0885 54.7535C20.9898 54.7378 21.1104 55.2632 21.0116 55.2476Z" fill="url(#paint3_linear_199819_529)" style="mix-blend-mode:darken" mask="url(#path-3-inside-2_199819_529)"/>
<mask id="path-5-inside-3_199819_529" fill="white">
<path d="M55.0819 32.3776C73.2732 34.0828 70.3182 53.6246 77.5 65.0793C70.2098 68.115 61.2343 67.7136 54.8958 62.7146C49.9202 58.7431 46.7705 52.6028 46.3557 46.2693C46.1499 42.7808 45.9481 39.286 45.1751 35.8661C50.617 36.4831 55.3205 40.4642 58.2998 44.8183C60.1838 47.5841 61.8919 50.4423 63.524 53.3608C64.5237 55.1484 65.3229 56.5243 66.5661 57.9848C65.7628 56.5472 64.9271 54.5887 63.9133 52.3324C62.5239 49.2401 61.0301 46.1996 59.255 43.3067C57.28 40.1104 55.1201 38.1448 52.7879 36.7844C50.383 35.3818 47.6982 34.5945 45.0396 33.8254C48.1231 32.4365 51.7395 32.0643 55.0819 32.3776Z"/>
</mask>
<path d="M55.0819 32.3776C73.2732 34.0828 70.3182 53.6246 77.5 65.0793C70.2098 68.115 61.2343 67.7136 54.8958 62.7146C49.9202 58.7431 46.7705 52.6028 46.3557 46.2693C46.1499 42.7808 45.9481 39.286 45.1751 35.8661C50.617 36.4831 55.3205 40.4642 58.2998 44.8183C60.1838 47.5841 61.8919 50.4423 63.524 53.3608C64.5237 55.1484 65.3229 56.5243 66.5661 57.9848C65.7628 56.5472 64.9271 54.5887 63.9133 52.3324C62.5239 49.2401 61.0301 46.1996 59.255 43.3067C57.28 40.1104 55.1201 38.1448 52.7879 36.7844C50.383 35.3818 47.6982 34.5945 45.0396 33.8254C48.1231 32.4365 51.7395 32.0643 55.0819 32.3776Z" fill="url(#paint4_radial_199819_529)"/>
<path d="M63.524 53.3608C63.524 53.3608 63.524 53.3608 63.524 53.3608C64.4177 54.9766 65.3472 56.5878 66.5539 57.9953C66.5663 58.0098 66.5895 57.9936 66.5802 57.977C66.0878 57.0858 65.6598 56.1597 65.2393 55.2317C64.8021 54.263 64.3779 53.2895 63.9446 52.3184C62.5652 49.2242 61.0758 46.1706 59.3094 43.2733C57.7021 40.6286 55.5361 38.2658 52.8336 36.706C50.4224 35.2901 47.7265 34.4914 45.0715 33.715L45.0868 33.9302C48.1984 32.5514 51.6948 32.204 55.0684 32.5217C62.3284 32.8033 68.1668 38.4245 70.2345 45.1673C72.6775 51.7719 73.5119 59.0313 77.2727 65.2218L77.3969 64.8316C70.1921 67.8189 61.2745 67.3657 55.1047 62.4497C50.2221 58.5286 47.1376 52.476 46.7478 46.2436C46.5523 42.7615 46.36 39.2336 45.588 35.7728L45.1274 36.2868C50.4417 36.9318 54.9157 40.7142 57.9111 45.0842C58.1733 45.4715 58.4328 45.8619 58.6893 46.2542C60.2506 48.6421 61.6994 51.1052 63.0877 53.6049C63.3786 53.4422 63.6695 53.2795 63.9604 53.1168C62.5497 50.611 61.0745 48.1357 59.483 45.7321C59.2215 45.3371 58.9569 44.9441 58.6889 44.5532C55.5552 40.0489 50.9073 36.114 45.2228 35.4455C44.9033 35.4102 44.6905 35.6461 44.7622 35.9595C45.5344 39.3252 45.7484 42.808 45.9636 46.2924C46.4079 52.7504 49.6226 58.9578 54.6852 62.9784C61.1272 68.0388 70.2623 68.4167 77.6032 65.327C77.7666 65.2584 77.8219 65.0867 77.7273 64.9368C74.0135 58.9204 73.1178 51.6734 70.6216 45.0233C68.5192 38.2303 62.4362 32.4506 55.0954 32.2335C51.6792 31.9321 48.1445 32.3024 44.9923 33.7206C44.8838 33.7698 44.8931 33.9029 45.0076 33.9359C47.6667 34.6964 50.3484 35.4756 52.7421 36.8629C55.425 38.3908 57.5852 40.717 59.2008 43.3402C60.9797 46.2202 62.4854 49.2617 63.8821 52.3464C64.3209 53.3148 64.7508 54.2858 65.1938 55.2524C65.6199 56.1784 66.0536 57.1028 66.5521 57.9927L66.5784 57.9744C65.3657 56.5765 64.4271 54.9716 63.524 53.3608ZM63.524 53.3608L63.9604 53.1168L63.0877 53.6049C63.1362 53.6923 63.4755 53.2734 63.524 53.3608Z" fill="url(#paint5_linear_199819_529)" style="mix-blend-mode:darken" mask="url(#path-5-inside-3_199819_529)"/>
<defs>
<radialGradient id="paint0_radial_199819_529" cx="0" cy="0" r="1" gradientUnits="userSpaceOnUse" gradientTransform="translate(41.2501 43.5) rotate(-115.346) scale(31.5357 26.9546)">
<stop stop-color="#9E7549"/>
<stop offset="0.817308" stop-color="#D2A96F"/>
</radialGradient>
<linearGradient id="paint1_linear_199819_529" x1="50.3314" y1="16.2207" x2="22.5402" y2="17.5196" gradientUnits="userSpaceOnUse">
<stop stop-color="#BB905B"/>
<stop offset="1" stop-color="#F2D6A9"/>
</linearGradient>
<radialGradient id="paint2_radial_199819_529" cx="0" cy="0" r="1" gradientUnits="userSpaceOnUse" gradientTransform="translate(39.25 53) rotate(-54.2239) scale(20.9538 20.8853)">
<stop stop-color="#9E7549"/>
<stop offset="0.817308" stop-color="#D2A96F"/>
</radialGradient>
<linearGradient id="paint3_linear_199819_529" x1="44.9489" y1="51.9095" x2="0.00505032" y2="57.8574" gradientUnits="userSpaceOnUse">
<stop stop-color="#BB905B"/>
<stop offset="1" stop-color="#F2D6A9"/>
</linearGradient>
<radialGradient id="paint4_radial_199819_529" cx="0" cy="0" r="1" gradientTransform="matrix(22.5 20.75 -24.6566 5.70273 46.75 35.25)" gradientUnits="userSpaceOnUse">
<stop stop-color="#9E7549"/>
<stop offset="0.817308" stop-color="#D2A96F"/>
</radialGradient>
<linearGradient id="paint5_linear_199819_529" x1="77.8438" y1="45.664" x2="44.6217" y2="47.918" gradientUnits="userSpaceOnUse">
<stop stop-color="#BB905B"/>
<stop offset="1" stop-color="#F2D6A9"/>
</linearGradient>
</defs>
</svg>
